<svg xmlns="http://www.w3.org/2000/svg" version="1.1" xmlns:xlink="http://www.w3.org/1999/xlink" xmlns:svgjs="http://svgjs.com/svgjs" width="327.67999" height="327.67999"><svg version="1.1" id="SvgjsSvg1004" width="327.67999" height="327.67999" viewBox="0 0 327.67999 327.67999" sodipodi:docname="favicon.svg" inkscape:version="1.2 (dc2aedaf03, 2022-05-15)" xmlns:inkscape="http://www.inkscape.org/namespaces/inkscape" xmlns:sodipodi="http://sodipodi.sourceforge.net/DTD/sodipodi-0.dtd" xmlns="http://www.w3.org/2000/svg" xmlns:svg="http://www.w3.org/2000/svg">
  <defs id="SvgjsDefs1003"></defs>
  <sodipodi:namedview id="SvgjsSodipodi:namedview1002" pagecolor="#ffffff" bordercolor="#000000" borderopacity="0.25" inkscape:showpageshadow="2" inkscape:pageopacity="0.0" inkscape:pagecheckerboard="0" inkscape:deskcolor="#d1d1d1" showgrid="false" inkscape:zoom="1.7889146" inkscape:cx="242.04621" inkscape:cy="153.7245" inkscape:window-width="1920" inkscape:window-height="1009" inkscape:window-x="-8" inkscape:window-y="-8" inkscape:window-maximized="1" inkscape:current-layer="g8"></sodipodi:namedview>
  <g inkscape:groupmode="layer" inkscape:label="Image" id="SvgjsG1001">
    <path style="fill:#020202;stroke:none;stroke-width:0.32" d="M 37.439996,14.189536 V 313.70952 H 188.8 c -1.12864,-4.9328 -5.11616,-10.0048 -7.58912,-14.4 -4.77888,-8.49408 -9.29376,-17.1344 -14.1232,-25.6 -2.8512,-4.99808 -6.95423,-10.52416 -8.68767,-16 h -35.2 -8.96 l -3.32704,-0.51296 -0.51296,-3.32704 v -8.64 -35.2 -140.479986 -40.319999 -10.56 l -0.32896,-3.966911 -4.47104,-0.513088 h -13.440014 -54.72 m 91.520014,0 V 74.669534 H 166.08 c 9.91808,0 20.30368,-0.16288 29.44,4.296 23.29632,11.369279 25.1552,50.788796 2.88,64.355516 -7.26784,4.42656 -15.13632,5.05408 -23.36,5.61696 -15.24671,1.04416 -30.78559,0.29152 -46.07999,0.29152 v 51.51999 h 11.84 c 1.39616,0 3.77088,-0.44896 4.9952,0.32896 2.1696,1.37824 3.648,6.08896 4.88032,8.31104 4.01792,7.24384 7.91232,14.5648 12.0192,21.76 10.31519,18.07136 20.24671,36.42368 30.16639,54.72 3.59168,6.62432 7.0944,13.3456 10.9136,19.84 1.31776,2.24032 2.31136,5.3776 4.10912,7.25824 1.22016,1.27648 3.9488,0.74176 5.55616,0.74176 h 15.36 61.44 l -6.58336,-11.84 -14.72096,-25.28 -47.49568,-81.6 c 7.97504,-1.17792 16.44064,-5.70048 23.36,-9.648 C 292.976,157.85513 302.63904,86.820253 265.22112,46.177055 230.3584,8.3094082 175.4992,14.189536 128.96001,14.189536 Z" id="SvgjsPath1000"></path>
  </g>
</svg><style>@media (prefers-color-scheme: light) { :root { filter: none; } }
@media (prefers-color-scheme: dark) { :root { filter: invert(100%); } }
</style></svg>